#N canvas 518 203 555 304 10;
#X floatatom 122 67 5 0 0 0 x - -;
#X floatatom 122 83 5 0 0 0 y - -;
#X floatatom 122 99 5 0 0 0 z - -;
#X floatatom 122 118 5 0 0 0 x - -;
#X floatatom 122 134 5 0 0 0 y - -;
#X floatatom 122 150 5 0 0 0 z - -;
#X floatatom 122 169 5 0 0 0 x - -;
#X floatatom 122 185 5 0 0 0 y - -;
#X floatatom 122 201 5 0 0 0 z - -;
#X floatatom 122 220 5 0 0 0 x - -;
#X floatatom 122 236 5 0 0 0 y - -;
#X floatatom 122 252 5 0 0 0 z - -;
#X floatatom 122 271 5 0 0 0 width - -;
#X text 65 66 center;
#X text 45 117 direction;
#X text 15 167 elbow position;
#X text 16 218 wrist position;
#X obj 184 6 inlet;
#X obj 184 26 route center direction elbow_position wrist_position
width;
#X obj 184 46 unpack 0 0 0;
#X obj 244 83 unpack 0 0 0;
#X obj 326 134 unpack 0 0 0;
#X obj 404 194 unpack 0 0 0;
#X text 122 48 arm;
#X connect 17 0 18 0;
#X connect 18 0 19 0;
#X connect 18 1 20 0;
#X connect 18 2 21 0;
#X connect 18 3 22 0;
#X connect 18 4 12 0;
#X connect 19 0 0 0;
#X connect 19 1 1 0;
#X connect 19 2 2 0;
#X connect 20 0 3 0;
#X connect 20 1 4 0;
#X connect 20 2 5 0;
#X connect 21 0 6 0;
#X connect 21 1 7 0;
#X connect 21 2 8 0;
#X connect 22 0 9 0;
#X connect 22 1 10 0;
#X connect 22 2 11 0;
#X coords 0 -1 1 1 150 240 1 10 50;
