#N canvas 279 129 538 468 10;
#X floatatom 124 138 5 0 0 0 x - -, f 5;
#X floatatom 124 155 5 0 0 0 y - -, f 5;
#X floatatom 124 172 5 0 0 0 z - -, f 5;
#X obj 174 135 unpack 0 0 0;
#X floatatom 124 244 5 0 0 0 x - -, f 5;
#X floatatom 124 260 5 0 0 0 y - -, f 5;
#X floatatom 124 277 5 0 0 0 z - -, f 5;
#X obj 174 244 unpack 0 0 0;
#X floatatom 124 297 5 0 0 0 wdt - -, f 5;
#X floatatom 124 313 5 0 0 0 len - -, f 5;
#X obj 173 298 unpack 0 0;
#X floatatom 124 191 5 0 0 0 x - -, f 5;
#X floatatom 124 207 5 0 0 0 y - -, f 5;
#X floatatom 124 224 5 0 0 0 z - -, f 5;
#X obj 174 191 unpack 0 0 0;
#X obj 174 52 inlet;
#X obj 174 77 route \$1;
#X obj 174 103 route direction position velocity size type;
#X symbolatom 110 121 7 0 0 0 - - -, f 7;
#X obj 393 239 symbol;
#X connect 3 0 0 0;
#X connect 3 1 1 0;
#X connect 3 2 2 0;
#X connect 7 0 4 0;
#X connect 7 1 5 0;
#X connect 7 2 6 0;
#X connect 10 0 8 0;
#X connect 10 1 9 0;
#X connect 14 0 11 0;
#X connect 14 1 12 0;
#X connect 14 2 13 0;
#X connect 15 0 16 0;
#X connect 16 0 17 0;
#X connect 17 0 3 0;
#X connect 17 1 14 0;
#X connect 17 2 7 0;
#X connect 17 3 10 0;
#X connect 17 4 19 0;
#X connect 19 0 18 0;
#X coords 0 -1 1 1 65 230 1 100 100;
