#N canvas 279 129 484 322 10;
#X floatatom 37 98 5 0 0 0 x - -, f 5;
#X floatatom 37 114 5 0 0 0 y - -, f 5;
#X floatatom 37 130 5 0 0 0 z - -, f 5;
#X obj 87 95 unpack 0 0 0;
#X floatatom 37 200 5 0 0 0 x - -, f 5;
#X floatatom 37 216 5 0 0 0 y - -, f 5;
#X floatatom 37 232 5 0 0 0 z - -, f 5;
#X obj 87 203 unpack 0 0 0;
#X floatatom 37 251 5 0 0 0 wdt - -, f 5;
#X floatatom 37 267 5 0 0 0 len - -, f 5;
#X obj 86 257 unpack 0 0;
#X floatatom 37 149 5 0 0 0 x - -, f 5;
#X floatatom 37 165 5 0 0 0 y - -, f 5;
#X floatatom 37 181 5 0 0 0 z - -, f 5;
#X obj 87 151 unpack 0 0 0;
#X obj 87 12 inlet;
#X obj 87 37 route \$1;
#X symbolatom 19 79 7 0 0 0 - - -, f 7;
#X obj 305 86 symbol;
#X obj 54 286 tgl 15 0 empty empty extend -37 7 0 10 -262144 -1 -1
0 1;
#X obj 87 63 route direction position velocity size type is_extended
;
#X connect 3 0 0 0;
#X connect 3 1 1 0;
#X connect 3 2 2 0;
#X connect 7 0 4 0;
#X connect 7 1 5 0;
#X connect 7 2 6 0;
#X connect 10 0 8 0;
#X connect 10 1 9 0;
#X connect 14 0 11 0;
#X connect 14 1 12 0;
#X connect 14 2 13 0;
#X connect 15 0 16 0;
#X connect 16 0 20 0;
#X connect 18 0 17 0;
#X connect 20 0 3 0;
#X connect 20 1 14 0;
#X connect 20 2 7 0;
#X connect 20 3 10 0;
#X connect 20 4 18 0;
#X connect 20 5 19 0;
#X coords 0 -1 1 1 66 245 1 10 60;
