#N canvas 279 129 432 311 10;
#X floatatom 34 98 5 0 0 0 x - -;
#X floatatom 34 114 5 0 0 0 y - -;
#X floatatom 34 130 5 0 0 0 z - -;
#X obj 84 95 unpack 0 0 0;
#X floatatom 34 200 5 0 0 0 x - -;
#X floatatom 34 216 5 0 0 0 y - -;
#X floatatom 34 232 5 0 0 0 z - -;
#X obj 84 203 unpack 0 0 0;
#X floatatom 34 251 5 0 0 0 wdt - -;
#X floatatom 34 267 5 0 0 0 len - -;
#X obj 83 257 unpack 0 0;
#X floatatom 34 149 5 0 0 0 x - -;
#X floatatom 34 165 5 0 0 0 y - -;
#X floatatom 34 181 5 0 0 0 z - -;
#X obj 84 151 unpack 0 0 0;
#X obj 84 12 inlet;
#X obj 84 37 route \$1;
#X symbolatom 16 79 8 0 0 0 - - -;
#X obj 302 86 symbol;
#X obj 51 286 tgl 15 0 empty empty extend -37 7 0 10 -262144 -1 -1
0 1;
#X obj 84 63 route direction position velocity size type is_extended
;
#X connect 3 0 0 0;
#X connect 3 1 1 0;
#X connect 3 2 2 0;
#X connect 7 0 4 0;
#X connect 7 1 5 0;
#X connect 7 2 6 0;
#X connect 10 0 8 0;
#X connect 10 1 9 0;
#X connect 14 0 11 0;
#X connect 14 1 12 0;
#X connect 14 2 13 0;
#X connect 15 0 16 0;
#X connect 16 0 20 0;
#X connect 18 0 17 0;
#X connect 20 0 3 0;
#X connect 20 1 14 0;
#X connect 20 2 7 0;
#X connect 20 3 10 0;
#X connect 20 4 18 0;
#X connect 20 5 19 0;
#X coords 0 -1 1 1 60 245 1 10 60;
