#N canvas 390 154 336 228 10;
#X floatatom 143 175 8 0 0 0 dur: - -;
#X floatatom 143 191 5 0 0 0 id: - -;
#X obj 143 95 symbol;
#X symbolatom 143 143 10 0 0 0 type: - -;
#X obj 209 95 symbol;
#X symbolatom 143 159 10 0 0 0 state: - -;
#X obj 143 69 route type state duration id;
#X obj 144 43 route \$1;
#X obj 144 15 r gesture;
#X connect 2 0 3 0;
#X connect 4 0 5 0;
#X connect 6 0 2 0;
#X connect 6 1 4 0;
#X connect 6 2 0 0;
#X connect 6 3 1 0;
#X connect 7 0 6 0;
#X connect 8 0 7 0;
#X coords 0 -1 1 1 110 90 1 100 120;
