#N canvas 390 154 377 228 10;
#X floatatom 149 175 8 0 0 0 dur: - -, f 8;
#X floatatom 149 191 5 0 0 0 id: - -, f 5;
#X obj 149 95 symbol;
#X symbolatom 149 143 10 0 0 0 type: - -, f 10;
#X obj 215 95 symbol;
#X symbolatom 149 159 10 0 0 0 state: - -, f 10;
#X obj 149 69 route type state duration id;
#X obj 150 43 route \$1;
#X obj 150 15 r gesture;
#X connect 2 0 3 0;
#X connect 4 0 5 0;
#X connect 6 0 2 0;
#X connect 6 1 4 0;
#X connect 6 2 0 0;
#X connect 6 3 1 0;
#X connect 7 0 6 0;
#X connect 8 0 7 0;
#X coords 0 -1 1 1 124 90 1 100 120;
