#N canvas 588 187 1126 656 10;
#X obj 151 -84 route \$1;
#X obj 187 44 unpack 0 0 0;
#X floatatom 213 132 5 0 0 0 x - -, f 5;
#X floatatom 213 149 5 0 0 0 y - -, f 5;
#X floatatom 213 166 5 0 0 0 z - -, f 5;
#X floatatom 213 187 5 0 0 0 x - -, f 5;
#X floatatom 213 203 5 0 0 0 y - -, f 5;
#X floatatom 213 220 5 0 0 0 z - -, f 5;
#X floatatom 215 359 5 0 0 0 x - -, f 5;
#X floatatom 689 131 5 0 0 0 fingers - -, f 5;
#X floatatom 770 132 5 0 0 0 tools - -, f 5;
#X floatatom 215 341 5 0 0 0 sphere_radius - -, f 5;
#X floatatom 213 241 5 0 0 0 x - -, f 5;
#X floatatom 213 257 5 0 0 0 y - -, f 5;
#X floatatom 213 273 5 0 0 0 z - -, f 5;
#X floatatom 213 293 5 0 0 0 x - -, f 5;
#X floatatom 213 307 5 0 0 0 y - -, f 5;
#X floatatom 213 321 5 0 0 0 z - -, f 5;
#X text 128 132 direction;
#X text 103 243 palm velocity;
#X text 117 293 palm normal;
#X obj 151 -127 r hand;
#X text 105 187 palm position;
#X text 624 155 fingers;
#X obj 1000 337 unpack 0 0 0;
#X obj 1096 339 unpack 0 0 0;
#X obj 896 335 unpack 0 0 0;
#X obj 990 299 route normal position velocity;
#X obj 891 398 route radius center;
#X floatatom 215 372 5 0 0 0 y - -, f 5;
#X floatatom 215 385 5 0 0 0 z - -, f 5;
#X text 110 360 sphere center;
#X obj 963 437 unpack 0 0 0;
#X obj 716 60 route count;
#X text 427 188 direction;
#X text 434 240 position;
#X text 434 292 velocity;
#X text 462 348 size;
#X obj 590 57 route count;
#X obj 494 174 finger 0;
#X obj 560 174 finger 1;
#X obj 625 174 finger 2;
#X obj 690 174 finger 3;
#X obj 755 174 finger 4;
#X obj 449 146 tgl 15 0 empty empty is_right 17 7 0 10 -262144 -1 -1
0 1;
#X obj 449 129 tgl 15 0 empty empty is_left 17 7 0 10 -262144 -1 -1
0 1;
#X floatatom 217 418 5 0 0 0 pinch_strength - -, f 5;
#X floatatom 217 404 5 0 0 0 grab_strength - -, f 5;
#X floatatom 217 432 5 0 0 0 time_visible - -, f 5;
#X obj 306 469 route grab_strength pinch_strength time_visible;
#X obj 151 -4 route direction palm sphere arm finger tool is_right
is_left;
#N canvas 0 50 853 539 arm 1;
#X text 161 109 arms;
#X floatatom 222 137 5 0 0 0 x - -, f 5;
#X floatatom 222 154 5 0 0 0 y - -, f 5;
#X floatatom 222 171 5 0 0 0 z - -, f 5;
#X floatatom 222 192 5 0 0 0 x - -, f 5;
#X floatatom 222 208 5 0 0 0 y - -, f 5;
#X floatatom 222 225 5 0 0 0 z - -, f 5;
#X floatatom 222 246 5 0 0 0 x - -, f 5;
#X floatatom 222 262 5 0 0 0 y - -, f 5;
#X floatatom 222 278 5 0 0 0 z - -, f 5;
#X floatatom 222 298 5 0 0 0 x - -, f 5;
#X floatatom 222 312 5 0 0 0 y - -, f 5;
#X floatatom 222 326 5 0 0 0 z - -, f 5;
#X floatatom 223 349 5 0 0 0 width - -, f 5;
#X text 161 137 center;
#X text 140 192 direction;
#X text 105 248 elbow position;
#X text 108 298 wrist position;
#X obj 304 20 inlet;
#X obj 304 50 route center direction elbow_position wrist_position
width;
#X obj 304 86 unpack 0 0 0;
#X obj 384 123 unpack 0 0 0;
#X obj 466 174 unpack 0 0 0;
#X obj 544 234 unpack 0 0 0;
#X connect 18 0 19 0;
#X connect 19 0 20 0;
#X connect 19 1 21 0;
#X connect 19 2 22 0;
#X connect 19 3 23 0;
#X connect 19 4 13 0;
#X connect 20 0 1 0;
#X connect 20 1 2 0;
#X connect 20 2 3 0;
#X connect 21 0 4 0;
#X connect 21 1 5 0;
#X connect 21 2 6 0;
#X connect 22 0 7 0;
#X connect 22 1 8 0;
#X connect 22 2 9 0;
#X connect 23 0 10 0;
#X connect 23 1 11 0;
#X connect 23 2 12 0;
#X coords 0 -1 1 1 165 300 2 100 100;
#X restore 267 139 pd arm;
#X connect 0 0 50 0;
#X connect 1 0 2 0;
#X connect 1 1 3 0;
#X connect 1 2 4 0;
#X connect 21 0 0 0;
#X connect 24 0 5 0;
#X connect 24 1 6 0;
#X connect 24 2 7 0;
#X connect 25 0 12 0;
#X connect 25 1 13 0;
#X connect 25 2 14 0;
#X connect 26 0 15 0;
#X connect 26 1 16 0;
#X connect 26 2 17 0;
#X connect 27 0 26 0;
#X connect 27 1 24 0;
#X connect 27 2 25 0;
#X connect 28 0 11 0;
#X connect 28 1 32 0;
#X connect 32 0 8 0;
#X connect 32 1 29 0;
#X connect 32 2 30 0;
#X connect 33 0 10 0;
#X connect 38 0 9 0;
#X connect 38 1 39 0;
#X connect 38 1 40 0;
#X connect 38 1 41 0;
#X connect 38 1 42 0;
#X connect 38 1 43 0;
#X connect 49 0 47 0;
#X connect 49 1 46 0;
#X connect 49 2 48 0;
#X connect 50 0 1 0;
#X connect 50 1 27 0;
#X connect 50 2 28 0;
#X connect 50 3 51 0;
#X connect 50 4 38 0;
#X connect 50 5 33 0;
#X connect 50 6 44 0;
#X connect 50 7 45 0;
#X coords 0 -1 1 1 750 350 1 100 100;
