#N canvas 216 67 718 469 10;
#X obj 86 8 route \$1;
#X obj 86 48 unpack 0 0 0;
#X floatatom 112 156 5 0 0 0 x - -;
#X floatatom 112 172 5 0 0 0 y - -;
#X floatatom 112 188 5 0 0 0 z - -;
#X floatatom 112 207 5 0 0 0 x - -;
#X floatatom 112 223 5 0 0 0 y - -;
#X floatatom 112 239 5 0 0 0 z - -;
#X floatatom 112 379 5 0 0 0 x - -;
#X floatatom 430 146 5 0 0 0 fingers - -;
#X floatatom 651 147 5 0 0 0 tools - -;
#X floatatom 112 360 5 0 0 0 sphere_radius - -;
#X floatatom 112 258 5 0 0 0 x - -;
#X floatatom 112 274 5 0 0 0 y - -;
#X floatatom 112 290 5 0 0 0 z - -;
#X floatatom 112 309 5 0 0 0 x - -;
#X floatatom 112 325 5 0 0 0 y - -;
#X floatatom 112 341 5 0 0 0 z - -;
#X text 40 154 direction;
#X text 14 256 palm velocity;
#X text 26 307 palm normal;
#X obj 86 -12 r hand;
#X text 14 205 palm position;
#X text 383 167 fingers;
#X obj 146 113 unpack 0 0 0;
#X obj 242 115 unpack 0 0 0;
#X obj 42 111 unpack 0 0 0;
#X obj 136 75 route normal position velocity;
#X obj 330 68 route radius center;
#X floatatom 112 395 5 0 0 0 y - -;
#X floatatom 112 411 5 0 0 0 z - -;
#X text 14 377 sphere center;
#X obj 383 90 unpack 0 0 0;
#X obj 554 64 route count;
#X text 319 223 direction;
#X text 325 273 position;
#X text 324 325 velocity;
#X text 348 376 size;
#X obj 468 61 route count;
#X obj 383 187 finger 0;
#X obj 162 161 tgl 15 0 empty empty is_right 17 7 0 10 -262144 -1 -1
0 1;
#X obj 162 146 tgl 15 0 empty empty is_left 17 7 0 10 -262144 -1 -1
0 1;
#X floatatom 560 162 5 0 0 0 pinch_strength - -;
#X floatatom 560 146 5 0 0 0 grab_strength - -;
#X floatatom 312 146 5 0 0 0 time_visible - -;
#X obj 423 37 route grab_strength pinch_strength time_visible;
#X obj 86 28 route direction palm sphere arm finger tool is_right is_left
;
#X obj 162 187 arm;
#X text 348 206 type;
#X obj 443 187 finger 1;
#X obj 503 187 finger 2;
#X obj 563 187 finger 3;
#X obj 623 187 finger 4;
#X connect 0 0 46 0;
#X connect 1 0 2 0;
#X connect 1 1 3 0;
#X connect 1 2 4 0;
#X connect 21 0 0 0;
#X connect 24 0 5 0;
#X connect 24 1 6 0;
#X connect 24 2 7 0;
#X connect 25 0 12 0;
#X connect 25 1 13 0;
#X connect 25 2 14 0;
#X connect 26 0 15 0;
#X connect 26 1 16 0;
#X connect 26 2 17 0;
#X connect 27 0 26 0;
#X connect 27 1 24 0;
#X connect 27 2 25 0;
#X connect 28 0 11 0;
#X connect 28 1 32 0;
#X connect 32 0 8 0;
#X connect 32 1 29 0;
#X connect 32 2 30 0;
#X connect 33 0 10 0;
#X connect 38 0 9 0;
#X connect 38 1 39 0;
#X connect 38 1 49 0;
#X connect 38 1 50 0;
#X connect 38 1 51 0;
#X connect 38 1 52 0;
#X connect 45 0 43 0;
#X connect 45 1 42 0;
#X connect 45 2 44 0;
#X connect 46 0 1 0;
#X connect 46 1 27 0;
#X connect 46 2 28 0;
#X connect 46 3 47 0;
#X connect 46 4 38 0;
#X connect 46 5 33 0;
#X connect 46 6 40 0;
#X connect 46 7 41 0;
#X connect 46 8 45 0;
#X coords 0 -1 1 1 680 300 1 10 140;
