#N canvas 143 63 1028 656 10;
#X obj 619 151 route \$1;
#X obj 619 223 unpack 0 0 0;
#X floatatom 195 132 5 0 0 0 x - -;
#X floatatom 195 149 5 0 0 0 y - -;
#X floatatom 195 166 5 0 0 0 z - -;
#X obj 620 277 unpack 0 0 0;
#X floatatom 195 187 5 0 0 0 x - -;
#X floatatom 195 203 5 0 0 0 y - -;
#X floatatom 195 220 5 0 0 0 z - -;
#X floatatom 195 362 5 0 0 0 sphere_center - -;
#X floatatom 195 381 5 0 0 0 fingers - -;
#X floatatom 195 398 5 0 0 0 tools - -;
#X floatatom 195 345 5 0 0 0 sphere_radius - -;
#X obj 619 179 route direction palm_position palm_velocity palm_normal
sphere_radius sphere_center finger_count tool_count fingers;
#X obj 619 332 unpack 0 0 0;
#X floatatom 195 241 5 0 0 0 x - -;
#X floatatom 195 257 5 0 0 0 y - -;
#X floatatom 195 273 5 0 0 0 z - -;
#X obj 619 385 unpack 0 0 0;
#X floatatom 195 293 5 0 0 0 x - -;
#X floatatom 195 309 5 0 0 0 y - -;
#X floatatom 196 325 5 0 0 0 z - -;
#X text 125 132 direction;
#X text 102 243 palm velocity;
#X text 116 293 palm normal;
#X obj 299 176 point 0;
#X obj 359 176 point 1;
#X obj 419 176 point 2;
#X obj 479 176 point 3;
#X obj 539 176 point 4;
#X obj 618 124 r hand;
#X text 104 187 palm position;
#X text 418 144 fingers;
#X text 238 189 direction;
#X text 239 245 position;
#X text 238 296 velocity;
#X text 237 351 size;
#X connect 0 0 13 0;
#X connect 1 0 2 0;
#X connect 1 1 3 0;
#X connect 1 2 4 0;
#X connect 5 0 6 0;
#X connect 5 1 7 0;
#X connect 5 2 8 0;
#X connect 13 0 1 0;
#X connect 13 1 5 0;
#X connect 13 2 14 0;
#X connect 13 3 18 0;
#X connect 13 4 12 0;
#X connect 13 5 9 0;
#X connect 13 6 10 0;
#X connect 13 7 11 0;
#X connect 13 8 25 0;
#X connect 13 8 26 0;
#X connect 13 8 27 0;
#X connect 13 8 28 0;
#X connect 13 8 29 0;
#X connect 14 0 15 0;
#X connect 14 1 16 0;
#X connect 14 2 17 0;
#X connect 18 0 19 0;
#X connect 18 1 20 0;
#X connect 18 2 21 0;
#X connect 30 0 0 0;
#X coords 0 -1 1 1 510 320 1 100 100;
