#N canvas 14 50 1448 689 10;
#X obj 13 103 bng 15 250 50 0 empty empty empty 17 7 0 10 -262144 -1
-1;
#X obj 33 33 tgl 30 0 empty empty empty 17 7 0 10 -4034 -1 -1 0 1;
#X obj 33 73 metro 50;
#X msg 53 103 info;
#N canvas 396 50 890 560 flags 0;
#X obj 334 61 tgl 15 0 empty to_general general 19 7 0 10 -228856 -1
-1 0 1;
#X obj 209 91 tgl 15 0 empty to_palm_position palm_position 19 7 0
10 -262144 -1 -1 0 1;
#X obj 209 326 tgl 15 0 empty to_fingers_position position 19 7 0 10
-262144 -1 -1 0 1;
#X obj 334 280 tgl 15 0 empty to_tools_position position 19 7 0 10
-262144 -1 -1 0 1;
#X obj 209 356 tgl 15 0 empty to_fingers_size size 19 7 0 10 -262144
-1 -1 0 1;
#X obj 334 310 tgl 15 0 empty to_tools_size size 19 7 0 10 -262144
-1 -1 0 1;
#X obj 334 295 tgl 15 0 empty to_tools_velocity velocity 19 7 0 10
-262144 -1 -1 0 1;
#X obj 209 341 tgl 15 0 empty to_fingers_velocity velocity 19 7 0 10
-262144 -1 -1 0 1;
#X obj 209 76 tgl 15 0 empty to_direction direction 19 7 0 10 -262144
-1 -1 0 1;
#X obj 209 165 tgl 15 0 empty to_sphere_radius sphere_radius 19 7 0
10 -262144 -1 -1 0 1;
#X obj 209 180 tgl 15 0 empty to_sphere_center sphere_center 19 7 0
10 -262144 -1 -1 0 1;
#X obj 209 195 tgl 15 0 empty to_finger_count finger_count 19 7 0 10
-262144 -1 -1 0 1;
#X obj 209 210 tgl 15 0 empty to_tool_count tool_count 19 7 0 10 -262144
-1 -1 0 1;
#X obj 209 105 tgl 15 0 empty to_palm_velocity palm_velocity 19 7 0
10 -262144 -1 -1 0 1;
#X obj 209 120 tgl 15 0 empty to_palm_normal palm_normal 19 7 0 10
-262144 -1 -1 0 1;
#X msg 481 11 general \$1;
#X msg 8 8 hands_direction \$1;
#X msg 8 110 hands_sphere_radius \$1;
#X msg 8 127 hands_sphere_center \$1;
#X msg 8 144 hands_finger_count \$1;
#X msg 8 161 hands_tool_count \$1;
#X msg 8 25 hands_palm_position \$1;
#X msg 8 42 hands_palm_velocity \$1;
#X msg 8 59 hands_palm_normal \$1;
#X msg 209 490 fingers_size \$1;
#X obj 474 429 list prepend gestures;
#X obj 394 495 list trim;
#X msg 474 309 tools_size \$1;
#X msg 209 456 fingers_position \$1;
#X msg 209 473 fingers_velocity \$1;
#X msg 474 278 tools_position \$1;
#X msg 474 293 tools_velocity \$1;
#X msg 474 356 TYPE_CIRCLE \$1;
#X msg 474 387 TYPE_KEY_TAP \$1;
#X msg 474 402 TYPE_SCREEN_TAP \$1;
#X msg 474 372 TYPE_SWIPE \$1;
#X obj 334 343 tgl 15 0 empty to_gestures_circle circle 19 7 0 10 -262144
-1 -1 0 1;
#X obj 334 373 tgl 15 0 empty to_gestures_key_tap key_tap 19 7 0 10
-262144 -1 -1 0 1;
#X obj 334 388 tgl 15 0 empty to_gestures_screen_tap screen_tap 19
7 0 10 -262144 -1 -1 0 1;
#X obj 334 358 tgl 15 0 empty to_gestures_swipe swipe 19 7 0 10 -262144
-1 -1 0 1;
#X obj 209 311 tgl 15 0 empty to_fingers_direction direction 19 7 0
10 -262144 -1 -1 0 1;
#X msg 209 439 fingers_direction \$1;
#X obj 334 265 tgl 15 0 empty to_tools_direction direction 19 7 0 10
-262144 -1 -1 0 1;
#X msg 473 262 tools_direction \$1;
#X obj 334 42 tgl 15 0 empty empty all_on/off 19 7 0 10 -258113 -1
-1 0 1;
#X obj 209 371 tgl 15 0 empty to_fingers_type type 19 7 0 10 -262144
-1 -1 0 1;
#X msg 209 507 fingers_type \$1;
#X obj 334 187 tgl 15 0 empty to_interaction_box_center center 19 7
0 10 -262144 -1 -1 0 1;
#X obj 334 202 tgl 15 0 empty to_interaction_box_width width 19 7 0
10 -262144 -1 -1 0 1;
#X obj 334 217 tgl 15 0 empty to_interaction_box_height height 19 7
0 10 -262144 -1 -1 0 1;
#X obj 334 232 tgl 15 0 empty to_interaction_box_depth depth 19 7 0
10 -262144 -1 -1 0 1;
#X msg 481 180 interaction_box_center \$1;
#X msg 482 198 interaction_box_width \$1;
#X msg 481 217 interaction_box_height \$1;
#X msg 480 235 interaction_box_depth \$1;
#X msg 8 76 hands_is_left \$1;
#X msg 8 93 hands_is_right \$1;
#X obj 209 135 tgl 15 0 empty to_is_left is_left 19 7 0 10 -262144
-1 -1 0 1;
#X obj 209 150 tgl 15 0 empty to_is_right is_right 19 7 0 10 -262144
-1 -1 0 1;
#X obj 209 296 tgl 15 0 empty to_fingers_extended extended 19 7 0 10
-262144 -1 -1 0 1;
#X msg 209 422 fingers_extended \$1;
#X msg 209 524 fingers_is_extended \$1;
#X obj 209 386 tgl 15 0 empty to_fingers_is_extended is_extended 19
7 0 10 -262144 -1 -1 0 1;
#X obj 209 225 tgl 15 0 empty to_grab_strength grab_strength 19 7 0
10 -262144 -1 -1 0 1;
#X obj 209 240 tgl 15 0 empty to_pinch_strength pinch_strength 19 7
0 10 -262144 -1 -1 0 1;
#X obj 209 255 tgl 15 0 empty to_time_visible time_visible 19 7 0 10
-262144 -1 -1 0 1;
#X msg 8 178 hands_grab_strength \$1;
#X msg 9 195 hands_pinch_strength \$1;
#X msg 9 212 hands_time_visible \$1;
#X obj 334 94 tgl 15 0 empty to_arms_center center 19 7 0 10 -262144
-1 -1 0 1;
#X obj 334 109 tgl 15 0 empty to_arms_direction direction 19 7 0 10
-262144 -1 -1 0 1;
#X obj 334 124 tgl 15 0 empty to_arms_elbow_position elbow_position
19 7 0 10 -262144 -1 -1 0 1;
#X obj 334 139 tgl 15 0 empty to_arms_wrist_position wrist_position
19 7 0 10 -262144 -1 -1 0 1;
#X obj 334 154 tgl 15 0 empty to_arms_width width 19 7 0 10 -262144
-1 -1 0 1;
#X msg 467 62 arms_center \$1;
#X msg 468 80 arms_direction \$1;
#X msg 467 99 arms_elbow_position \$1;
#X msg 466 117 arms_wrist_position \$1;
#X msg 466 136 arms_width \$1;
#X obj 394 515 s flags;
#X obj 394 456 list prepend flag;
#X obj 209 61 tgl 15 0 empty to_hands Hands 19 7 0 10 -228856 -1 -1
0 1;
#X obj 209 281 tgl 15 0 empty to_fingers Fingers 19 7 0 10 -228856
-1 -1 0 1;
#X obj 334 250 tgl 15 0 empty to_tools Tools 19 7 0 10 -228856 -1 -1
0 1;
#X msg 673 307 \; to_tools_direction \$1 \; to_tools_position \$1 \;
to_tools_velocity \$1 \; to_tools_size \$1;
#X obj 334 328 tgl 15 0 empty to_gestures Gestures 19 7 0 10 -228856
-1 -1 0 1;
#X msg 673 386 \; to_gestures_circle \$1 \; to_gestures_swipe \$1 \;
to_gestures_key_tap \$1 \; to_gestures_screen_tap \$1 \;;
#X msg 9 237 \; to_direction \$1 \; to_palm_position \$1 \; to_palm_velocity
\$1 \; to_palm_normal \$1 \; to_sphere_radius \$1 \; to_sphere_center
\$1 \; to_finger_count \$1 \; to_tool_count \$1 \; to_is_left \$1 \;
to_is_right \$1 \; to_grab_strength \$1 \; to_pinch_strength \$1 \;
to_time_visible \$1;
#X msg 10 433 \; to_fingers_direction \$1 \; to_fingers_position \$1
\; to_fingers_velocity \$1 \; to_fingers_size \$1 \; to_fingers_type
\$1 \; to_fingers_is_extended \$1 \; to_fingers_extended \$1;
#X msg 672 230 \; to_interaction_box_center \$1 \; to_interaction_box_width
\$1 \; to_interaction_box_height \$1 \; to_interaction_box_depth \$1
\;;
#X obj 334 172 tgl 15 0 empty to_interaction.box Interaction.box 19
7 0 10 -228856 -1 -1 0 1;
#X obj 334 79 tgl 15 0 empty to_arms Arms 19 7 0 10 -228856 -1 -1 0
1;
#X msg 672 132 \; to_arms_center \$1 \; to_arms_direction \$1 \; to_arms_elbow_position
\$1 \; to_arms_wrist_position \$1 \; to_arms_width \$1;
#X msg 670 17 \; to_hands \$1 \; to_arms \$1 \; to_fingers \$1 \; to_interaction.box
\$1 \; to_tools \$1 \; to_gestures \$1 \; to_general \$1;
#X connect 0 0 15 0;
#X connect 1 0 21 0;
#X connect 2 0 28 0;
#X connect 3 0 30 0;
#X connect 4 0 24 0;
#X connect 5 0 27 0;
#X connect 6 0 31 0;
#X connect 7 0 29 0;
#X connect 8 0 16 0;
#X connect 9 0 17 0;
#X connect 10 0 18 0;
#X connect 11 0 19 0;
#X connect 12 0 20 0;
#X connect 13 0 22 0;
#X connect 14 0 23 0;
#X connect 15 0 80 0;
#X connect 16 0 80 0;
#X connect 17 0 80 0;
#X connect 18 0 80 0;
#X connect 19 0 80 0;
#X connect 20 0 80 0;
#X connect 21 0 80 0;
#X connect 22 0 80 0;
#X connect 23 0 80 0;
#X connect 24 0 80 0;
#X connect 25 0 26 0;
#X connect 26 0 79 0;
#X connect 27 0 80 0;
#X connect 28 0 80 0;
#X connect 29 0 80 0;
#X connect 30 0 80 0;
#X connect 31 0 80 0;
#X connect 32 0 25 0;
#X connect 33 0 25 0;
#X connect 34 0 25 0;
#X connect 35 0 25 0;
#X connect 36 0 32 0;
#X connect 37 0 33 0;
#X connect 38 0 34 0;
#X connect 39 0 35 0;
#X connect 40 0 41 0;
#X connect 41 0 80 0;
#X connect 42 0 43 0;
#X connect 43 0 80 0;
#X connect 44 0 93 0;
#X connect 45 0 46 0;
#X connect 46 0 80 0;
#X connect 47 0 51 0;
#X connect 48 0 52 0;
#X connect 49 0 53 0;
#X connect 50 0 54 0;
#X connect 51 0 80 0;
#X connect 52 0 80 0;
#X connect 53 0 80 0;
#X connect 54 0 80 0;
#X connect 55 0 80 0;
#X connect 56 0 80 0;
#X connect 57 0 55 0;
#X connect 58 0 56 0;
#X connect 59 0 60 0;
#X connect 60 0 80 0;
#X connect 61 0 80 0;
#X connect 62 0 61 0;
#X connect 63 0 66 0;
#X connect 64 0 67 0;
#X connect 65 0 68 0;
#X connect 66 0 80 0;
#X connect 67 0 80 0;
#X connect 68 0 80 0;
#X connect 69 0 74 0;
#X connect 70 0 75 0;
#X connect 71 0 76 0;
#X connect 72 0 77 0;
#X connect 73 0 78 0;
#X connect 74 0 80 0;
#X connect 75 0 80 0;
#X connect 76 0 80 0;
#X connect 77 0 80 0;
#X connect 78 0 80 0;
#X connect 80 0 26 0;
#X connect 81 0 87 0;
#X connect 82 0 88 0;
#X connect 83 0 84 0;
#X connect 85 0 86 0;
#X connect 90 0 89 0;
#X connect 91 0 92 0;
#X coords 0 -1 1 1 250 365 1 200 40;
#X restore 282 9 pd flags;
#X obj 100 203 s gesture;
#N canvas 415 50 354 294 general 0;
#X floatatom 182 118 14 0 0 0 frameID - -, f 14;
#X floatatom 182 138 14 0 0 0 timestamp - -, f 14;
#X floatatom 182 158 5 0 0 0 hands - -, f 5;
#X floatatom 182 178 5 0 0 0 fingers - -, f 5;
#X floatatom 182 198 5 0 0 0 tools - -, f 5;
#X floatatom 182 218 5 0 0 0 gestures - -, f 5;
#X obj 182 45 r general;
#X floatatom 182 238 5 0 0 0 valid_frame - -, f 5;
#X floatatom 182 258 5 0 0 0 FPS - -, f 5;
#X obj 182 71 unpack 0 0 0 0 0 0 0 0;
#X connect 6 0 9 0;
#X connect 9 0 0 0;
#X connect 9 1 1 0;
#X connect 9 2 2 0;
#X connect 9 3 3 0;
#X connect 9 4 4 0;
#X connect 9 5 5 0;
#X connect 9 6 7 0;
#X connect 9 7 8 0;
#X coords 0 -1 1 1 185 180 1 100 100;
#X restore 544 9 pd general;
#X obj 41 253 s hand;
#X obj 33 283 s general;
#X obj 112 253 s tool;
#N canvas 698 164 511 338 tool 0;
#X obj 200 47 r tool;
#X obj 82 104 point 0;
#X text 14 123 direction;
#X text 20 174 position;
#X text 20 225 velocity;
#X text 44 276 size;
#X obj 149 104 point 1;
#X obj 216 104 point 2;
#X obj 283 104 point 3;
#X obj 350 104 point 4;
#X connect 0 0 1 0;
#X connect 0 0 6 0;
#X connect 0 0 7 0;
#X connect 0 0 8 0;
#X connect 0 0 9 0;
#X coords 0 -1 1 1 410 220 1 10 100;
#X restore 989 9 pd tool;
#N canvas 385 107 725 442 config 0;
#X text 40 98 Gestures;
#X floatatom 224 99 5 0 0 0 Circle_MinRadius - -, f 5;
#X floatatom 224 119 5 0 0 0 Circle_MinArc - -, f 5;
#X floatatom 224 139 5 0 0 0 Swipe_MinLength - -, f 5;
#X floatatom 224 159 5 0 0 0 Swipe_MinVelocity - -, f 5;
#X floatatom 224 179 5 0 0 0 KeyTap_MinDownVelocity - -, f 5;
#X floatatom 224 199 5 0 0 0 KeyTap_HistorySeconds - -, f 5;
#X floatatom 224 219 5 0 0 0 KeyTap_MinDistance - -, f 5;
#X floatatom 224 239 5 0 0 0 ScreenTap_MinForwardVelocity - -, f 5
;
#X floatatom 224 259 5 0 0 0 ScreenTap_HistorySeconds - -, f 5;
#X floatatom 224 279 5 0 0 0 ScreenTap_MinDistance - -, f 5;
#X obj 292 19 list prepend circle_min_radius;
#X obj 311 49 list prepend circle_min_arc;
#X obj 297 372 list prepend config;
#X obj 297 392 list trim;
#X obj 333 76 list prepend swipe_min_length;
#X obj 346 104 list prepend swipe_min_velocity;
#X obj 372 182 list prepend key_tap_history_seconds;
#X obj 392 207 list prepend key_tap_min_distance;
#X obj 404 234 list prepend screen_tap_min_forward_velocity;
#X obj 428 284 list prepend screen_tap_min_distance;
#X obj 408 260 list prepend screen_tap_history_seconds;
#X floatatom 350 315 5 0 0 0 - - -, f 5;
#X obj 333 342 list prepend wrong_parameter;
#X obj 359 143 list prepend swipe_min_velocity;
#X obj 297 412 s configs;
#X connect 1 0 11 0;
#X connect 2 0 12 0;
#X connect 3 0 15 0;
#X connect 4 0 16 0;
#X connect 5 0 24 0;
#X connect 6 0 17 0;
#X connect 7 0 18 0;
#X connect 8 0 19 0;
#X connect 9 0 21 0;
#X connect 10 0 20 0;
#X connect 11 0 13 0;
#X connect 12 0 13 0;
#X connect 13 0 14 0;
#X connect 14 0 25 0;
#X connect 15 0 13 0;
#X connect 16 0 13 0;
#X connect 17 0 13 0;
#X connect 18 0 13 0;
#X connect 19 0 13 0;
#X connect 20 0 13 0;
#X connect 21 0 13 0;
#X connect 22 0 23 0;
#X connect 23 0 13 0;
#X connect 24 0 13 0;
#X coords 0 -1 1 1 244 220 1 20 80;
#X restore 739 9 pd config;
#X obj 183 253 s ibox;
#X obj 41 233 route hand tool interaction_box;
#N canvas 415 50 341 252 interaction_box 0;
#X obj 137 14 r ibox;
#X obj 120 48 route center width height depth;
#X floatatom 167 123 5 0 0 0 x - -, f 5;
#X floatatom 167 139 5 0 0 0 y - -, f 5;
#X floatatom 167 155 5 0 0 0 z - -, f 5;
#X floatatom 167 190 5 0 0 0 height - -, f 5;
#X floatatom 167 206 5 0 0 0 depth - -, f 5;
#X obj 120 72 unpack 0 0 0;
#X floatatom 167 174 5 0 0 0 width - -, f 5;
#X text 106 122 center;
#X connect 0 0 1 0;
#X connect 1 0 7 0;
#X connect 1 1 8 0;
#X connect 1 2 5 0;
#X connect 1 3 6 0;
#X connect 7 0 2 0;
#X connect 7 1 3 0;
#X connect 7 2 4 0;
#X coords 0 -1 1 1 120 130 1 100 100;
#X restore 544 202 pd interaction_box;
#X obj 63 133 r flags;
#X obj 63 153 r configs;
#X obj 5 384 hand 0;
#X text 33 13 Polling on/off;
#X obj 739 242 gesture 0;
#X obj 33 183 leapmotion;
#X text 4 333 (c) 2017 Chikashi Miyama and João Pais;
#X obj 987 242 gesture 2;
#X obj 863 242 gesture 1;
#X obj 1111 242 gesture 3;
#X obj 1235 242 gesture 4;
#X obj 726 384 hand 1;
#X connect 0 0 20 0;
#X connect 1 0 2 0;
#X connect 2 0 20 0;
#X connect 3 0 20 0;
#X connect 13 0 7 0;
#X connect 13 1 9 0;
#X connect 13 2 12 0;
#X connect 15 0 20 0;
#X connect 16 0 20 0;
#X connect 20 0 8 0;
#X connect 20 1 13 0;
#X connect 20 2 5 0;
