#N canvas 279 129 425 329 10;
#X floatatom 124 121 5 0 0 0 x - -;
#X floatatom 124 137 5 0 0 0 y - -;
#X floatatom 124 153 5 0 0 0 z - -;
#X obj 174 118 unpack 0 0 0;
#X floatatom 124 223 5 0 0 0 x - -;
#X floatatom 124 239 5 0 0 0 y - -;
#X floatatom 124 255 5 0 0 0 z - -;
#X obj 174 223 unpack 0 0 0;
#X floatatom 124 274 5 0 0 0 wdt - -;
#X floatatom 124 290 5 0 0 0 len - -;
#X obj 173 275 unpack 0 0;
#X floatatom 124 172 5 0 0 0 x - -;
#X floatatom 124 188 5 0 0 0 y - -;
#X floatatom 124 204 5 0 0 0 z - -;
#X obj 174 172 unpack 0 0 0;
#X obj 174 35 inlet;
#X obj 174 60 route \$1;
#X obj 174 86 route direction position velocity size;
#X connect 3 0 0 0;
#X connect 3 1 1 0;
#X connect 3 2 2 0;
#X connect 7 0 4 0;
#X connect 7 1 5 0;
#X connect 7 2 6 0;
#X connect 10 0 8 0;
#X connect 10 1 9 0;
#X connect 14 0 11 0;
#X connect 14 1 12 0;
#X connect 14 2 13 0;
#X connect 15 0 16 0;
#X connect 16 0 17 0;
#X connect 17 0 3 0;
#X connect 17 1 14 0;
#X connect 17 2 7 0;
#X connect 17 3 10 0;
#X coords 0 -1 1 1 60 210 1 100 100;
